<svg width="124" height="124" viewBox="0 0 124 124" fill="none" xmlns="http://www.w3.org/2000/svg">
<path d="M12.012 7.68896H7.69995V11.9948H12.012V7.68896Z" fill="#0B0B0B"/>
<path d="M16.324 7.68896H12.012V11.9948H16.324V7.68896Z" fill="#0B0B0B"/>
<path d="M20.636 7.68896H16.324V11.9948H20.636V7.68896Z" fill="#0B0B0B"/>
<path d="M24.948 7.68896H20.636V11.9948H24.948V7.68896Z" fill="#0B0B0B"/>
<path d="M29.26 7.68896H24.948V11.9948H29.26V7.68896Z" fill="#0B0B0B"/>
<path d="M33.572 7.68896H29.26V11.9948H33.572V7.68896Z" fill="#0B0B0B"/>
<path d="M37.8839 7.68896H33.572V11.9948H37.8839V7.68896Z" fill="#0B0B0B"/>
<path d="M46.508 7.68896H42.196V11.9948H46.508V7.68896Z" fill="#0B0B0B"/>
<path d="M50.82 7.68896H46.508V11.9948H50.82V7.68896Z" fill="#0B0B0B"/>
<path d="M68.068 7.68896H63.7559V11.9948H68.068V7.68896Z" fill="#0B0B0B"/>
<path d="M72.38 7.68896H68.068V11.9948H72.38V7.68896Z" fill="#0B0B0B"/>
<path d="M76.692 7.68896H72.38V11.9948H76.692V7.68896Z" fill="#0B0B0B"/>
<path d="M81.004 7.68896H76.692V11.9948H81.004V7.68896Z" fill="#0B0B0B"/>
<path d="M89.628 7.68896H85.316V11.9948H89.628V7.68896Z" fill="#0B0B0B"/>
<path d="M93.94 7.68896H89.628V11.9948H93.94V7.68896Z" fill="#0B0B0B"/>
<path d="M98.252 7.68896H93.94V11.9948H98.252V7.68896Z" fill="#0B0B0B"/>
<path d="M102.564 7.68896H98.252V11.9948H102.564V7.68896Z" fill="#0B0B0B"/>
<path d="M106.876 7.68896H102.564V11.9948H106.876V7.68896Z" fill="#0B0B0B"/>
<path d="M111.188 7.68896H106.876V11.9948H111.188V7.68896Z" fill="#0B0B0B"/>
<path d="M115.5 7.68896H111.188V11.9948H115.5V7.68896Z" fill="#0B0B0B"/>
<path d="M12.012 11.9948H7.69995V16.3007H12.012V11.9948Z" fill="#0B0B0B"/>
<path d="M37.8839 11.9948H33.572L33.572 16.3007H37.8839V11.9948Z" fill="#0B0B0B"/>
<path d="M59.444 11.9948H55.132V16.3007H59.444V11.9948Z" fill="#0B0B0B"/>
<path d="M68.068 11.9948H63.7559V16.3007H68.068V11.9948Z" fill="#0B0B0B"/>
<path d="M89.628 11.9948H85.316V16.3007H89.628V11.9948Z" fill="#0B0B0B"/>
<path d="M115.5 11.9948H111.188V16.3007H115.5V11.9948Z" fill="#0B0B0B"/>
<path d="M12.012 16.3007H7.69995V20.6066H12.012V16.3007Z" fill="#0B0B0B"/>
<path d="M20.636 16.3007H16.324V20.6066H20.636V16.3007Z" fill="#0B0B0B"/>
<path d="M24.948 16.3007H20.636V20.6066H24.948V16.3007Z" fill="#0B0B0B"/>
<path d="M29.26 16.3007H24.948V20.6066H29.26V16.3007Z" fill="#0B0B0B"/>
<path d="M37.8839 16.3007H33.572V20.6066H37.8839V16.3007Z" fill="#0B0B0B"/>
<path d="M76.692 16.3007H72.38V20.6066H76.692V16.3007Z" fill="#0B0B0B"/>
<path d="M81.004 16.3007H76.692V20.6066H81.004V16.3007Z" fill="#0B0B0B"/>
<path d="M89.628 16.3007H85.316V20.6066H89.628V16.3007Z" fill="#0B0B0B"/>
<path d="M98.252 16.3007H93.94V20.6066H98.252V16.3007Z" fill="#0B0B0B"/>
<path d="M102.564 16.3007H98.252V20.6066H102.564V16.3007Z" fill="#0B0B0B"/>
<path d="M106.876 16.3007H102.564V20.6066H106.876V16.3007Z" fill="#0B0B0B"/>
<path d="M115.5 16.3007H111.188V20.6066H115.5V16.3007Z" fill="#0B0B0B"/>
<path d="M12.012 20.6066H7.69995V24.9125H12.012V20.6066Z" fill="#0B0B0B"/>
<path d="M20.636 20.6066H16.324V24.9125H20.636V20.6066Z" fill="#0B0B0B"/>
<path d="M24.948 20.6066H20.636V24.9125H24.948V20.6066Z" fill="#0B0B0B"/>
<path d="M29.26 20.6066H24.948V24.9125H29.26V20.6066Z" fill="#0B0B0B"/>
<path d="M37.8839 20.6066H33.572V24.9125H37.8839V20.6066Z" fill="#0B0B0B"/>
<path d="M55.132 20.6066H50.82V24.9125H55.132V20.6066Z" fill="#0B0B0B"/>
<path d="M68.068 20.6066H63.7559V24.9125H68.068V20.6066Z" fill="#0B0B0B"/>
<path d="M72.38 20.6066H68.068V24.9125H72.38L72.38 20.6066Z" fill="#0B0B0B"/>
<path d="M76.692 20.6066H72.38L72.38 24.9125H76.692V20.6066Z" fill="#0B0B0B"/>
<path d="M89.628 20.6066H85.316V24.9125H89.628V20.6066Z" fill="#0B0B0B"/>
<path d="M98.252 20.6066H93.94V24.9125H98.252V20.6066Z" fill="#0B0B0B"/>
<path d="M102.564 20.6066H98.252V24.9125H102.564V20.6066Z" fill="#0B0B0B"/>
<path d="M106.876 20.6066H102.564V24.9125H106.876V20.6066Z" fill="#0B0B0B"/>
<path d="M115.5 20.6066H111.188V24.9125H115.5V20.6066Z" fill="#0B0B0B"/>
<path d="M12.012 24.9125H7.69995V29.2183H12.012V24.9125Z" fill="#0B0B0B"/>
<path d="M20.636 24.9125H16.324V29.2183H20.636V24.9125Z" fill="#0B0B0B"/>
<path d="M24.948 24.9125H20.636V29.2183H24.948V24.9125Z" fill="#0B0B0B"/>
<path d="M29.26 24.9125H24.948V29.2183H29.26V24.9125Z" fill="#0B0B0B"/>
<path d="M37.8839 24.9125H33.572V29.2183H37.8839V24.9125Z" fill="#0B0B0B"/>
<path d="M55.132 24.9125H50.82V29.2183H55.132V24.9125Z" fill="#0B0B0B"/>
<path d="M59.444 24.9125H55.132V29.2183H59.444V24.9125Z" fill="#0B0B0B"/>
<path d="M63.7559 24.9125H59.444V29.2183H63.7559V24.9125Z" fill="#0B0B0B"/>
<path d="M72.38 24.9125H68.068V29.2183H72.38V24.9125Z" fill="#0B0B0B"/>
<path d="M76.692 24.9125H72.38V29.2183H76.692V24.9125Z" fill="#0B0B0B"/>
<path d="M89.628 24.9125H85.316V29.2183H89.628V24.9125Z" fill="#0B0B0B"/>
<path d="M98.252 24.9125H93.94V29.2183H98.252V24.9125Z" fill="#0B0B0B"/>
<path d="M102.564 24.9125H98.252V29.2183H102.564V24.9125Z" fill="#0B0B0B"/>
<path d="M106.876 24.9125H102.564V29.2183H106.876V24.9125Z" fill="#0B0B0B"/>
<path d="M115.5 24.9125H111.188V29.2183H115.5V24.9125Z" fill="#0B0B0B"/>
<path d="M12.012 29.2183H7.69995V33.5242H12.012V29.2183Z" fill="#0B0B0B"/>
<path d="M37.8839 29.2183H33.572V33.5242H37.8839V29.2183Z" fill="#0B0B0B"/>
<path d="M50.82 29.2183H46.508V33.5242H50.82V29.2183Z" fill="#0B0B0B"/>
<path d="M55.132 29.2183H50.82V33.5242H55.132V29.2183Z" fill="#0B0B0B"/>
<path d="M68.068 29.2183H63.7559V33.5242H68.068V29.2183Z" fill="#0B0B0B"/>
<path d="M81.004 29.2183H76.692V33.5242H81.004V29.2183Z" fill="#0B0B0B"/>
<path d="M89.628 29.2183H85.316V33.5242H89.628V29.2183Z" fill="#0B0B0B"/>
<path d="M115.5 29.2183H111.188V33.5242H115.5V29.2183Z" fill="#0B0B0B"/>
<path d="M12.012 33.5242H7.69995V37.8301H12.012V33.5242Z" fill="#0B0B0B"/>
<path d="M16.324 33.5242L12.012 33.5242V37.8301H16.324V33.5242Z" fill="#0B0B0B"/>
<path d="M20.636 33.5242H16.324V37.8301H20.636V33.5242Z" fill="#0B0B0B"/>
<path d="M24.948 33.5242H20.636V37.8301H24.948V33.5242Z" fill="#0B0B0B"/>
<path d="M29.26 33.5242H24.948V37.8301H29.26V33.5242Z" fill="#0B0B0B"/>
<path d="M33.572 33.5242L29.26 33.5242V37.8301H33.572L33.572 33.5242Z" fill="#0B0B0B"/>
<path d="M37.8839 33.5242H33.572L33.572 37.8301H37.8839V33.5242Z" fill="#0B0B0B"/>
<path d="M46.508 33.5242L42.196 33.5242V37.8301H46.508V33.5242Z" fill="#0B0B0B"/>
<path d="M55.132 33.5242H50.82V37.8301H55.132V33.5242Z" fill="#0B0B0B"/>
<path d="M63.7559 33.5242L59.444 33.5242V37.8301H63.7559V33.5242Z" fill="#0B0B0B"/>
<path d="M72.38 33.5242L68.068 33.5242V37.8301H72.38V33.5242Z" fill="#0B0B0B"/>
<path d="M81.004 33.5242H76.692V37.8301H81.004V33.5242Z" fill="#0B0B0B"/>
<path d="M89.628 33.5242H85.316V37.8301H89.628V33.5242Z" fill="#0B0B0B"/>
<path d="M93.94 33.5242L89.628 33.5242V37.8301H93.94V33.5242Z" fill="#0B0B0B"/>
<path d="M98.252 33.5242H93.94V37.8301H98.252V33.5242Z" fill="#0B0B0B"/>
<path d="M102.564 33.5242H98.252V37.8301H102.564V33.5242Z" fill="#0B0B0B"/>
<path d="M106.876 33.5242H102.564V37.8301H106.876V33.5242Z" fill="#0B0B0B"/>
<path d="M111.188 33.5242L106.876 33.5242V37.8301H111.188V33.5242Z" fill="#0B0B0B"/>
<path d="M115.5 33.5242H111.188V37.8301H115.5V33.5242Z" fill="#0B0B0B"/>
<path d="M50.82 37.8301H46.508V42.136H50.82V37.8301Z" fill="#0B0B0B"/>
<path d="M55.132 37.8301H50.82V42.136H55.132V37.8301Z" fill="#0B0B0B"/>
<path d="M63.7559 37.8301H59.444V42.136H63.7559V37.8301Z" fill="#0B0B0B"/>
<path d="M72.38 37.8301H68.068V42.136H72.38V37.8301Z" fill="#0B0B0B"/>
<path d="M76.692 37.8301H72.38V42.136H76.692V37.8301Z" fill="#0B0B0B"/>
<path d="M81.004 37.8301H76.692V42.136H81.004V37.8301Z" fill="#0B0B0B"/>
<path d="M16.324 42.136H12.012V46.4418H16.324V42.136Z" fill="#0B0B0B"/>
<path d="M20.636 42.136H16.324V46.4418H20.636V42.136Z" fill="#0B0B0B"/>
<path d="M24.948 42.136H20.636V46.4418H24.948V42.136Z" fill="#0B0B0B"/>
<path d="M37.8839 42.136H33.572V46.4418H37.8839V42.136Z" fill="#0B0B0B"/>
<path d="M42.196 42.136H37.8839V46.4418H42.196V42.136Z" fill="#0B0B0B"/>
<path d="M46.508 42.136H42.196V46.4418H46.508V42.136Z" fill="#0B0B0B"/>
<path d="M50.82 42.136H46.508V46.4418H50.82V42.136Z" fill="#0B0B0B"/>
<path d="M55.132 42.136H50.82V46.4418H55.132V42.136Z" fill="#0B0B0B"/>
<path d="M68.068 42.136H63.7559V46.4418H68.068V42.136Z" fill="#0B0B0B"/>
<path d="M72.38 42.136H68.068V46.4418H72.38V42.136Z" fill="#0B0B0B"/>
<path d="M85.316 42.136H81.004V46.4418H85.316V42.136Z" fill="#0B0B0B"/>
<path d="M115.5 42.136H111.188V46.4418H115.5V42.136Z" fill="#0B0B0B"/>
<path d="M12.012 46.4418H7.69995V50.7477H12.012V46.4418Z" fill="#0B0B0B"/>
<path d="M16.324 46.4418H12.012V50.7477H16.324V46.4418Z" fill="#0B0B0B"/>
<path d="M20.636 46.4418H16.324V50.7477H20.636V46.4418Z" fill="#0B0B0B"/>
<path d="M24.948 46.4418H20.636V50.7477H24.948V46.4418Z" fill="#0B0B0B"/>
<path d="M46.508 46.4418H42.196V50.7477H46.508V46.4418Z" fill="#0B0B0B"/>
<path d="M59.444 46.4418H55.132V50.7477H59.444V46.4418Z" fill="#0B0B0B"/>
<path d="M63.7559 46.4418H59.444V50.7477H63.7559V46.4418Z" fill="#0B0B0B"/>
<path d="M72.38 46.4418H68.068V50.7477H72.38V46.4418Z" fill="#0B0B0B"/>
<path d="M93.94 46.4418H89.628V50.7477H93.94V46.4418Z" fill="#0B0B0B"/>
<path d="M115.5 46.4418H111.188V50.7477H115.5V46.4418Z" fill="#0B0B0B"/>
<path d="M12.012 50.7477H7.69995V55.0536H12.012V50.7477Z" fill="#0B0B0B"/>
<path d="M16.324 50.7477H12.012V55.0536H16.324V50.7477Z" fill="#0B0B0B"/>
<path d="M20.636 50.7477H16.324V55.0536H20.636V50.7477Z" fill="#0B0B0B"/>
<path d="M29.26 50.7477H24.948V55.0536H29.26V50.7477Z" fill="#0B0B0B"/>
<path d="M37.8839 50.7477H33.572V55.0536H37.8839V50.7477Z" fill="#0B0B0B"/>
<path d="M42.196 50.7477H37.8839V55.0536H42.196V50.7477Z" fill="#0B0B0B"/>
<path d="M50.82 50.7477H46.508V55.0536H50.82V50.7477Z" fill="#0B0B0B"/>
<path d="M55.132 50.7477H50.82V55.0536H55.132V50.7477Z" fill="#0B0B0B"/>
<path d="M59.444 50.7477H55.132V55.0536H59.444V50.7477Z" fill="#0B0B0B"/>
<path d="M72.38 50.7477H68.068V55.0536H72.38V50.7477Z" fill="#0B0B0B"/>
<path d="M85.316 50.7477H81.004V55.0536H85.316V50.7477Z" fill="#0B0B0B"/>
<path d="M98.252 50.7477H93.94V55.0536H98.252V50.7477Z" fill="#0B0B0B"/>
<path d="M111.188 50.7477H106.876V55.0536H111.188V50.7477Z" fill="#0B0B0B"/>
<path d="M115.5 50.7477H111.188V55.0536H115.5V50.7477Z" fill="#0B0B0B"/>
<path d="M12.012 55.0536H7.69995V59.3595H12.012V55.0536Z" fill="#0B0B0B"/>
<path d="M16.324 55.0536H12.012V59.3595H16.324V55.0536Z" fill="#0B0B0B"/>
<path d="M20.636 55.0536H16.324V59.3595H20.636V55.0536Z" fill="#0B0B0B"/>
<path d="M24.948 55.0536H20.636V59.3595H24.948V55.0536Z" fill="#0B0B0B"/>
<path d="M33.572 55.0536H29.26V59.3595H33.572L33.572 55.0536Z" fill="#0B0B0B"/>
<path d="M50.82 55.0536H46.508V59.3595H50.82V55.0536Z" fill="#0B0B0B"/>
<path d="M55.132 55.0536H50.82V59.3595H55.132V55.0536Z" fill="#0B0B0B"/>
<path d="M59.444 55.0536H55.132V59.3595H59.444V55.0536Z" fill="#0B0B0B"/>
<path d="M72.38 55.0536H68.068V59.3595H72.38V55.0536Z" fill="#0B0B0B"/>
<path d="M76.692 55.0536H72.38V59.3595H76.692V55.0536Z" fill="#0B0B0B"/>
<path d="M81.004 55.0536H76.692V59.3595H81.004V55.0536Z" fill="#0B0B0B"/>
<path d="M89.628 55.0536H85.316V59.3595H89.628V55.0536Z" fill="#0B0B0B"/>
<path d="M106.876 55.0536H102.564V59.3595H106.876V55.0536Z" fill="#0B0B0B"/>
<path d="M111.188 55.0536H106.876V59.3595H111.188V55.0536Z" fill="#0B0B0B"/>
<path d="M24.948 59.3595H20.636V63.6653H24.948V59.3595Z" fill="#0B0B0B"/>
<path d="M37.8839 59.3595H33.572L33.572 63.6653H37.8839V59.3595Z" fill="#0B0B0B"/>
<path d="M42.196 59.3595H37.8839V63.6653H42.196V59.3595Z" fill="#0B0B0B"/>
<path d="M46.508 59.3595H42.196V63.6653H46.508V59.3595Z" fill="#0B0B0B"/>
<path d="M59.444 59.3595H55.132V63.6653H59.444V59.3595Z" fill="#0B0B0B"/>
<path d="M63.7559 59.3595H59.444V63.6653H63.7559V59.3595Z" fill="#0B0B0B"/>
<path d="M72.38 59.3595H68.068V63.6653H72.38V59.3595Z" fill="#0B0B0B"/>
<path d="M85.316 59.3595H81.004V63.6653H85.316V59.3595Z" fill="#0B0B0B"/>
<path d="M93.94 59.3595H89.628V63.6653H93.94V59.3595Z" fill="#0B0B0B"/>
<path d="M98.252 59.3595H93.94V63.6653H98.252V59.3595Z" fill="#0B0B0B"/>
<path d="M106.876 59.3595H102.564V63.6653H106.876V59.3595Z" fill="#0B0B0B"/>
<path d="M12.012 63.6653H7.69995V67.9712H12.012V63.6653Z" fill="#0B0B0B"/>
<path d="M16.324 63.6653H12.012V67.9712H16.324V63.6653Z" fill="#0B0B0B"/>
<path d="M24.948 63.6653H20.636V67.9712H24.948V63.6653Z" fill="#0B0B0B"/>
<path d="M29.26 63.6653H24.948V67.9712H29.26V63.6653Z" fill="#0B0B0B"/>
<path d="M33.572 63.6653H29.26V67.9712H33.572L33.572 63.6653Z" fill="#0B0B0B"/>
<path d="M46.508 63.6653H42.196V67.9712H46.508V63.6653Z" fill="#0B0B0B"/>
<path d="M63.7559 63.6653H59.444V67.9712H63.7559V63.6653Z" fill="#0B0B0B"/>
<path d="M72.38 63.6653H68.068V67.9712H72.38V63.6653Z" fill="#0B0B0B"/>
<path d="M85.316 63.6653H81.004V67.9712H85.316V63.6653Z" fill="#0B0B0B"/>
<path d="M93.94 63.6653H89.628V67.9712H93.94V63.6653Z" fill="#0B0B0B"/>
<path d="M115.5 63.6653H111.188V67.9712H115.5V63.6653Z" fill="#0B0B0B"/>
<path d="M16.324 67.9712H12.012V72.2771H16.324V67.9712Z" fill="#0B0B0B"/>
<path d="M37.8839 67.9712H33.572L33.572 72.2771H37.8839V67.9712Z" fill="#0B0B0B"/>
<path d="M46.508 67.9712H42.196V72.2771H46.508V67.9712Z" fill="#0B0B0B"/>
<path d="M50.82 67.9712H46.508V72.2771H50.82V67.9712Z" fill="#0B0B0B"/>
<path d="M59.444 67.9712H55.132V72.2771H59.444V67.9712Z" fill="#0B0B0B"/>
<path d="M68.068 67.9712H63.7559V72.2771H68.068V67.9712Z" fill="#0B0B0B"/>
<path d="M76.692 67.9712H72.38L72.38 72.2771H76.692V67.9712Z" fill="#0B0B0B"/>
<path d="M98.252 67.9712H93.94V72.2771H98.252V67.9712Z" fill="#0B0B0B"/>
<path d="M102.564 67.9712H98.252V72.2771H102.564V67.9712Z" fill="#0B0B0B"/>
<path d="M111.188 67.9712H106.876V72.2771H111.188V67.9712Z" fill="#0B0B0B"/>
<path d="M115.5 67.9712H111.188V72.2771H115.5V67.9712Z" fill="#0B0B0B"/>
<path d="M20.636 72.2771L16.324 72.2771V76.583H20.636V72.2771Z" fill="#0B0B0B"/>
<path d="M24.948 72.2771H20.636V76.583H24.948V72.2771Z" fill="#0B0B0B"/>
<path d="M29.26 72.2771H24.948V76.583H29.26V72.2771Z" fill="#0B0B0B"/>
<path d="M42.196 72.2771H37.8839V76.583H42.196V72.2771Z" fill="#0B0B0B"/>
<path d="M50.82 72.2771H46.508V76.583H50.82V72.2771Z" fill="#0B0B0B"/>
<path d="M55.132 72.2771H50.82V76.583H55.132V72.2771Z" fill="#0B0B0B"/>
<path d="M63.7559 72.2771H59.444V76.583H63.7559V72.2771Z" fill="#0B0B0B"/>
<path d="M68.068 72.2771H63.7559V76.583H68.068V72.2771Z" fill="#0B0B0B"/>
<path d="M72.38 72.2771H68.068V76.583H72.38L72.38 72.2771Z" fill="#0B0B0B"/>
<path d="M76.692 72.2771H72.38L72.38 76.583H76.692V72.2771Z" fill="#0B0B0B"/>
<path d="M81.004 72.2771L76.692 72.2771V76.583H81.004V72.2771Z" fill="#0B0B0B"/>
<path d="M85.316 72.2771H81.004V76.583H85.316V72.2771Z" fill="#0B0B0B"/>
<path d="M93.94 72.2771L89.628 72.2771V76.583H93.94V72.2771Z" fill="#0B0B0B"/>
<path d="M98.252 72.2771H93.94V76.583H98.252V72.2771Z" fill="#0B0B0B"/>
<path d="M115.5 72.2771H111.188V76.583H115.5V72.2771Z" fill="#0B0B0B"/>
<path d="M16.324 76.583H12.012V80.8889H16.324V76.583Z" fill="#0B0B0B"/>
<path d="M29.26 76.583H24.948V80.8889H29.26V76.583Z" fill="#0B0B0B"/>
<path d="M33.572 76.583H29.26V80.8889H33.572V76.583Z" fill="#0B0B0B"/>
<path d="M37.8839 76.583H33.572V80.8889H37.8839V76.583Z" fill="#0B0B0B"/>
<path d="M42.196 76.583H37.8839V80.8889H42.196V76.583Z" fill="#0B0B0B"/>
<path d="M50.82 76.583H46.508V80.8889H50.82V76.583Z" fill="#0B0B0B"/>
<path d="M55.132 76.583H50.82V80.8889H55.132V76.583Z" fill="#0B0B0B"/>
<path d="M59.444 76.583H55.132V80.8889H59.444V76.583Z" fill="#0B0B0B"/>
<path d="M68.068 76.583H63.7559V80.8889H68.068V76.583Z" fill="#0B0B0B"/>
<path d="M76.692 76.583H72.38L72.38 80.8889H76.692V76.583Z" fill="#0B0B0B"/>
<path d="M81.004 76.583H76.692V80.8889H81.004V76.583Z" fill="#0B0B0B"/>
<path d="M85.316 76.583H81.004V80.8889H85.316V76.583Z" fill="#0B0B0B"/>
<path d="M89.628 76.583H85.316V80.8889H89.628V76.583Z" fill="#0B0B0B"/>
<path d="M93.94 76.583H89.628V80.8889H93.94V76.583Z" fill="#0B0B0B"/>
<path d="M98.252 76.583H93.94V80.8889H98.252V76.583Z" fill="#0B0B0B"/>
<path d="M106.876 76.583H102.564V80.8889H106.876V76.583Z" fill="#0B0B0B"/>
<path d="M111.188 76.583H106.876V80.8889H111.188V76.583Z" fill="#0B0B0B"/>
<path d="M115.5 76.583H111.188V80.8889H115.5V76.583Z" fill="#0B0B0B"/>
<path d="M46.508 80.8889H42.196V85.1947H46.508V80.8889Z" fill="#0B0B0B"/>
<path d="M55.132 80.8889H50.82V85.1947H55.132V80.8889Z" fill="#0B0B0B"/>
<path d="M76.692 80.8889H72.38V85.1947H76.692V80.8889Z" fill="#0B0B0B"/>
<path d="M81.004 80.8889H76.692V85.1947H81.004V80.8889Z" fill="#0B0B0B"/>
<path d="M98.252 80.8889H93.94V85.1947H98.252V80.8889Z" fill="#0B0B0B"/>
<path d="M102.564 80.8889H98.252V85.1947H102.564V80.8889Z" fill="#0B0B0B"/>
<path d="M12.012 85.1947H7.69995V89.5006H12.012V85.1947Z" fill="#0B0B0B"/>
<path d="M16.324 85.1947H12.012V89.5006H16.324V85.1947Z" fill="#0B0B0B"/>
<path d="M20.636 85.1947H16.324V89.5006H20.636V85.1947Z" fill="#0B0B0B"/>
<path d="M24.948 85.1947H20.636V89.5006H24.948V85.1947Z" fill="#0B0B0B"/>
<path d="M29.26 85.1947H24.948V89.5006H29.26V85.1947Z" fill="#0B0B0B"/>
<path d="M33.572 85.1947H29.26V89.5006H33.572V85.1947Z" fill="#0B0B0B"/>
<path d="M37.8839 85.1947H33.572V89.5006H37.8839V85.1947Z" fill="#0B0B0B"/>
<path d="M46.508 85.1947H42.196V89.5006H46.508V85.1947Z" fill="#0B0B0B"/>
<path d="M59.444 85.1947H55.132V89.5006H59.444V85.1947Z" fill="#0B0B0B"/>
<path d="M63.7559 85.1947H59.444V89.5006H63.7559V85.1947Z" fill="#0B0B0B"/>
<path d="M72.38 85.1947H68.068V89.5006H72.38L72.38 85.1947Z" fill="#0B0B0B"/>
<path d="M81.004 85.1947H76.692V89.5006H81.004V85.1947Z" fill="#0B0B0B"/>
<path d="M89.628 85.1947H85.316V89.5006H89.628V85.1947Z" fill="#0B0B0B"/>
<path d="M98.252 85.1947H93.94V89.5006H98.252V85.1947Z" fill="#0B0B0B"/>
<path d="M102.564 85.1947H98.252V89.5006H102.564V85.1947Z" fill="#0B0B0B"/>
<path d="M12.012 89.5006H7.69995V93.8065H12.012V89.5006Z" fill="#0B0B0B"/>
<path d="M37.8839 89.5006H33.572L33.572 93.8065H37.8839V89.5006Z" fill="#0B0B0B"/>
<path d="M50.82 89.5006H46.508V93.8065H50.82V89.5006Z" fill="#0B0B0B"/>
<path d="M55.132 89.5006H50.82V93.8065H55.132V89.5006Z" fill="#0B0B0B"/>
<path d="M63.7559 89.5006H59.444V93.8065H63.7559V89.5006Z" fill="#0B0B0B"/>
<path d="M68.068 89.5006H63.7559V93.8065H68.068V89.5006Z" fill="#0B0B0B"/>
<path d="M72.38 89.5006H68.068V93.8065H72.38V89.5006Z" fill="#0B0B0B"/>
<path d="M76.692 89.5006H72.38V93.8065H76.692V89.5006Z" fill="#0B0B0B"/>
<path d="M81.004 89.5006H76.692V93.8065H81.004V89.5006Z" fill="#0B0B0B"/>
<path d="M98.252 89.5006H93.94V93.8065H98.252V89.5006Z" fill="#0B0B0B"/>
<path d="M111.188 89.5006H106.876V93.8065H111.188V89.5006Z" fill="#0B0B0B"/>
<path d="M12.012 93.8065H7.69995V98.1124H12.012V93.8065Z" fill="#0B0B0B"/>
<path d="M20.636 93.8065H16.324V98.1124H20.636V93.8065Z" fill="#0B0B0B"/>
<path d="M24.948 93.8065H20.636V98.1124H24.948V93.8065Z" fill="#0B0B0B"/>
<path d="M29.26 93.8065H24.948V98.1124H29.26V93.8065Z" fill="#0B0B0B"/>
<path d="M37.8839 93.8065H33.572V98.1124H37.8839V93.8065Z" fill="#0B0B0B"/>
<path d="M50.82 93.8065H46.508V98.1124H50.82V93.8065Z" fill="#0B0B0B"/>
<path d="M55.132 93.8065H50.82V98.1124H55.132V93.8065Z" fill="#0B0B0B"/>
<path d="M72.38 93.8065H68.068V98.1124H72.38V93.8065Z" fill="#0B0B0B"/>
<path d="M81.004 93.8065H76.692V98.1124H81.004V93.8065Z" fill="#0B0B0B"/>
<path d="M85.316 93.8065H81.004V98.1124H85.316V93.8065Z" fill="#0B0B0B"/>
<path d="M89.628 93.8065H85.316V98.1124H89.628V93.8065Z" fill="#0B0B0B"/>
<path d="M93.94 93.8065H89.628V98.1124H93.94V93.8065Z" fill="#0B0B0B"/>
<path d="M98.252 93.8065H93.94V98.1124H98.252V93.8065Z" fill="#0B0B0B"/>
<path d="M111.188 93.8065H106.876V98.1124H111.188V93.8065Z" fill="#0B0B0B"/>
<path d="M12.012 98.1124H7.69995V102.418H12.012V98.1124Z" fill="#0B0B0B"/>
<path d="M20.636 98.1124H16.324V102.418H20.636V98.1124Z" fill="#0B0B0B"/>
<path d="M24.948 98.1124H20.636V102.418H24.948V98.1124Z" fill="#0B0B0B"/>
<path d="M29.26 98.1124H24.948V102.418H29.26V98.1124Z" fill="#0B0B0B"/>
<path d="M37.8839 98.1124H33.572V102.418H37.8839V98.1124Z" fill="#0B0B0B"/>
<path d="M46.508 98.1124H42.196V102.418H46.508V98.1124Z" fill="#0B0B0B"/>
<path d="M50.82 98.1124H46.508V102.418H50.82V98.1124Z" fill="#0B0B0B"/>
<path d="M55.132 98.1124H50.82V102.418H55.132V98.1124Z" fill="#0B0B0B"/>
<path d="M59.444 98.1124H55.132V102.418H59.444V98.1124Z" fill="#0B0B0B"/>
<path d="M72.38 98.1124H68.068V102.418H72.38V98.1124Z" fill="#0B0B0B"/>
<path d="M76.692 98.1124H72.38V102.418H76.692V98.1124Z" fill="#0B0B0B"/>
<path d="M106.876 98.1124H102.564V102.418H106.876V98.1124Z" fill="#0B0B0B"/>
<path d="M115.5 98.1124H111.188V102.418H115.5V98.1124Z" fill="#0B0B0B"/>
<path d="M12.012 102.418H7.69995V106.724H12.012V102.418Z" fill="#0B0B0B"/>
<path d="M20.636 102.418H16.324V106.724H20.636V102.418Z" fill="#0B0B0B"/>
<path d="M24.948 102.418H20.636V106.724H24.948V102.418Z" fill="#0B0B0B"/>
<path d="M29.26 102.418H24.948V106.724H29.26V102.418Z" fill="#0B0B0B"/>
<path d="M37.8839 102.418H33.572V106.724H37.8839V102.418Z" fill="#0B0B0B"/>
<path d="M46.508 102.418H42.196V106.724H46.508V102.418Z" fill="#0B0B0B"/>
<path d="M50.82 102.418H46.508V106.724H50.82V102.418Z" fill="#0B0B0B"/>
<path d="M76.692 102.418H72.38L72.38 106.724H76.692V102.418Z" fill="#0B0B0B"/>
<path d="M81.004 102.418H76.692V106.724H81.004V102.418Z" fill="#0B0B0B"/>
<path d="M98.252 102.418H93.94V106.724H98.252V102.418Z" fill="#0B0B0B"/>
<path d="M106.876 102.418H102.564V106.724H106.876V102.418Z" fill="#0B0B0B"/>
<path d="M12.012 106.724H7.69995V111.03H12.012V106.724Z" fill="#0B0B0B"/>
<path d="M37.8839 106.724H33.572V111.03H37.8839V106.724Z" fill="#0B0B0B"/>
<path d="M46.508 106.724H42.196V111.03H46.508V106.724Z" fill="#0B0B0B"/>
<path d="M50.82 106.724H46.508V111.03H50.82V106.724Z" fill="#0B0B0B"/>
<path d="M55.132 106.724H50.82V111.03H55.132V106.724Z" fill="#0B0B0B"/>
<path d="M68.068 106.724H63.7559V111.03H68.068V106.724Z" fill="#0B0B0B"/>
<path d="M72.38 106.724H68.068V111.03H72.38L72.38 106.724Z" fill="#0B0B0B"/>
<path d="M93.94 106.724H89.628V111.03H93.94V106.724Z" fill="#0B0B0B"/>
<path d="M98.252 106.724H93.94V111.03H98.252V106.724Z" fill="#0B0B0B"/>
<path d="M102.564 106.724H98.252V111.03H102.564V106.724Z" fill="#0B0B0B"/>
<path d="M12.012 111.03H7.69995V115.336H12.012V111.03Z" fill="#0B0B0B"/>
<path d="M16.324 111.03H12.012V115.336H16.324V111.03Z" fill="#0B0B0B"/>
<path d="M20.636 111.03H16.324V115.336H20.636V111.03Z" fill="#0B0B0B"/>
<path d="M24.948 111.03H20.636V115.336H24.948V111.03Z" fill="#0B0B0B"/>
<path d="M29.26 111.03H24.948V115.336H29.26V111.03Z" fill="#0B0B0B"/>
<path d="M33.572 111.03H29.26V115.336H33.572L33.572 111.03Z" fill="#0B0B0B"/>
<path d="M37.8839 111.03H33.572L33.572 115.336H37.8839V111.03Z" fill="#0B0B0B"/>
<path d="M55.132 111.03H50.82V115.336H55.132V111.03Z" fill="#0B0B0B"/>
<path d="M59.444 111.03H55.132V115.336H59.444V111.03Z" fill="#0B0B0B"/>
<path d="M63.7559 111.03H59.444V115.336H63.7559V111.03Z" fill="#0B0B0B"/>
<path d="M72.38 111.03H68.068V115.336H72.38V111.03Z" fill="#0B0B0B"/>
<path d="M76.692 111.03H72.38V115.336H76.692V111.03Z" fill="#0B0B0B"/>
<path d="M89.628 111.03H85.316V115.336H89.628V111.03Z" fill="#0B0B0B"/>
<path d="M93.94 111.03H89.628V115.336H93.94V111.03Z" fill="#0B0B0B"/>
<path d="M98.252 111.03H93.94V115.336H98.252V111.03Z" fill="#0B0B0B"/>
<path d="M102.564 111.03H98.252V115.336H102.564V111.03Z" fill="#0B0B0B"/>
<path d="M106.876 111.03H102.564V115.336H106.876V111.03Z" fill="#0B0B0B"/>
<path d="M111.188 111.03H106.876V115.336H111.188V111.03Z" fill="#0B0B0B"/>
<path d="M115.5 111.03H111.188V115.336H115.5V111.03Z" fill="#0B0B0B"/>
</svg>
